<svg xmlns="http://www.w3.org/2000/svg" viewBox="0 0 24 24" fill="currentColor">
  <path d="M16.365 1.43c0 1.14-.465 2.27-1.23 3.09-.8.85-2.1 1.5-3.27 1.4-.15-1.15.45-2.3 1.2-3.15.85-.95 2.2-1.6 3.3-1.34.02.05.02.1.02.15zM20.5 17.5c-.6 1.35-.9 1.95-1.65 3.15-1.05 1.65-2.55 3.7-4.4 3.7-1.65.02-2.1-1.05-4.35-1.05s-2.75 1.05-4.4 1.08c-1.85.03-3.25-1.85-4.3-3.5-2.95-4.5-3.25-9.8-1.45-12.6 1.3-2 3.4-3.2 5.4-3.2 1.7 0 2.75 1.1 4.35 1.1 1.55 0 2.5-1.1 4.35-1.1 1.7 0 3.5.9 4.8 2.45-4.2 2.3-3.5 8.4 1.65 10z"/>
</svg>